Land_normalized_Motion_pl14
version=1
nRows=25
nColumns=43
inDegrees=yes
endheader
time		pelvis_tilt		pelvis_list		pelvis_rotation		pelvis_tx		pelvis_ty		pelvis_tz		hip_flexion_r		hip_adduction_r		hip_rotation_r		knee_angle_r		ankle_angle_r		subtalar_angle_r		mtp_angle_r		hip_flexion_l		hip_adduction_l		hip_rotation_l		knee_angle_l		ankle_angle_l		subtalar_angle_l		mtp_angle_l		lumbar_extension		lumbar_bending		lumbar_rotation		neck_flexion		neck_lateral_bending		neck_rotation		arm_flex_r		arm_add_r		arm_rot_r		elbow_flex_r		pro_sup_r		wrist_flex_r		wrist_dev_r		hand_finger_flex_r		arm_flex_l		arm_add_l		arm_rot_l		elbow_flex_l		pro_sup_l		wrist_flex_l		wrist_dev_l		hand_finger_flex_l		
0.867500		0.259012		2.919576		85.693510		0.009387		1.025658		0.656163		32.238667		-1.593677		-7.405645		-32.333249		-26.849507		6.210163		23.185392		27.400926		-9.710278		-13.643554		-31.293253		-24.983451		13.125482		24.184720		-30.612197		-2.689136		-1.765896		-36.896168		-4.130049		3.520853		-68.808914		-11.714399		-39.637310		51.987325		111.403461		0.181427		-0.825785		9.110719		-71.342889		-4.295464		-26.516884		69.570561		100.868613		-5.513885		-11.945555		16.041319		
0.870606		0.253815		3.168551		85.745693		0.009195		1.012844		0.651293		32.431510		-1.647690		-7.250134		-33.367266		-27.121006		6.204663		23.163723		27.502995		-9.703187		-13.562166		-31.996986		-25.100815		13.157339		24.207088		-30.906044		-2.692882		-1.715991		-36.917257		-4.098383		3.518530		-68.397093		-11.693372		-39.596354		51.938440		111.349183		-0.131190		-0.735031		9.033615		-70.822245		-4.414461		-26.915885		69.202819		100.656996		-5.762923		-11.868309		16.113410		
0.873712		0.200762		3.358619		85.749990		0.009114		0.999806		0.646720		32.742722		-1.716965		-7.052728		-34.414659		-27.491612		6.152049		23.118706		27.713371		-9.670828		-13.449529		-32.725976		-25.300795		13.174513		24.244522		-31.198884		-2.784899		-1.711722		-36.671948		-4.067760		3.472949		-67.832495		-11.662119		-39.572770		51.910547		111.254866		-0.699611		-0.580724		8.904485		-70.208181		-4.424472		-27.414945		68.796608		100.299830		-6.194530		-11.785417		16.240583		
0.876818		0.075661		3.343037		85.713078		0.008993		0.986267		0.642305		33.347250		-1.800571		-6.697558		-35.505904		-27.931691		6.013723		23.538220		28.210470		-9.583554		-13.359264		-33.521751		-25.748985		12.807901		24.637612		-31.259150		-2.937757		-1.663227		-36.519619		-4.061234		3.442910		-67.340932		-11.840420		-38.873285		51.855266		110.482681		-2.001174		-0.184624		9.453632		-69.612817		-4.794582		-27.211943		68.366853		99.016657		-7.952851		-11.679947		17.469096		
0.879924		0.055356		3.551041		85.742543		0.008875		0.973163		0.637715		33.667152		-1.845357		-6.471004		-36.586883		-28.168960		5.959730		23.736812		28.435337		-9.573012		-13.253578		-34.256871		-25.986608		12.691479		24.799101		-31.548910		-2.974683		-1.638834		-36.457436		-4.021325		3.418762		-66.773491		-11.933082		-38.565204		51.877909		110.219501		-2.512111		-0.024638		9.668765		-68.875076		-5.099400		-27.347656		67.862455		98.528285		-8.757290		-11.529948		17.882715		
0.883030		0.000244		3.759403		85.737480		0.008605		0.960022		0.633600		33.989512		-1.873459		-6.112848		-37.696869		-27.598331		5.834048		24.195135		28.727731		-9.483788		-12.965299		-35.150908		-25.697350		12.476163		24.906849		-32.010867		-3.039484		-1.692949		-35.711245		-4.074482		3.351132		-65.920624		-12.026944		-38.484852		51.859455		110.377260		-2.821042		0.108214		9.699404		-67.904045		-5.140402		-27.750181		67.308213		98.448665		-9.451220		-11.280236		17.666935		
0.886136		-0.114442		3.767451		85.813579		0.008269		0.946239		0.629430		34.606739		-1.967481		-5.662850		-39.086489		-26.293676		5.910500		27.476449		29.338782		-9.325979		-12.646334		-36.357980		-24.511036		12.196242		25.732494		-32.163575		-3.118275		-1.779310		-35.334482		-4.029730		3.343463		-65.196171		-12.127603		-38.214884		51.938067		110.659957		-3.468583		0.167900		10.552537		-67.093696		-5.499280		-27.670062		66.894394		97.993385		-10.690798		-11.049106		17.053768		
0.889242		-0.197958		3.780184		85.869632		0.008023		0.932531		0.625340		35.177324		-1.974406		-5.177400		-40.594575		-23.967325		5.878216		31.261043		29.948519		-9.178714		-12.284788		-37.781208		-22.168186		11.748760		26.728930		-32.356682		-3.174578		-1.830082		-34.838493		-4.032663		3.369725		-64.329016		-12.274693		-37.893055		51.889916		110.874909		-4.045407		0.195866		11.557726		-66.165395		-5.906019		-27.581345		66.402531		97.493728		-11.720989		-10.815721		16.459521		
0.892348		-0.257703		3.982258		85.918464		0.007757		0.918893		0.621155		35.573461		-1.986377		-4.722270		-42.480241		-20.070343		6.537729		32.416985		30.385927		-9.017787		-11.844280		-39.663460		-17.723237		11.551256		27.114936		-32.727634		-3.240268		-1.892183		-34.435287		-3.988195		3.481105		-63.549906		-12.466437		-37.552890		52.035155		110.944091		-4.128531		0.048851		11.762658		-65.256246		-6.127948		-27.877381		66.093261		97.539562		-12.134773		-10.630132		16.081983		
0.895455		-0.299387		3.974885		86.049180		0.007419		0.905019		0.617123		36.095273		-1.974431		-4.311428		-44.480228		-14.818358		7.544148		33.401086		31.063882		-8.896791		-11.471913		-41.798833		-12.232619		12.000076		27.610436		-32.926278		-3.228783		-1.970645		-33.823384		-3.878199		3.559049		-62.628393		-12.669995		-37.134017		52.028398		110.970355		-4.238538		-0.154383		12.122886		-64.129585		-6.454730		-28.069163		65.558251		97.582347		-12.643619		-10.375471		15.360442		
0.898561		-0.277959		4.012011		86.162062		0.007256		0.891135		0.613207		36.585766		-1.864985		-4.002413		-46.744594		-8.803915		8.475250		33.176749		31.765099		-8.856264		-11.056229		-44.267174		-6.088687		12.614428		28.049480		-33.188284		-3.190256		-2.064612		-33.152313		-3.841861		3.644654		-61.602713		-12.923696		-36.714051		52.013556		110.917618		-4.349372		-0.421504		12.571419		-63.077041		-6.773351		-28.246888		65.169099		97.599433		-12.946184		-10.202938		14.442700		
0.901667		-0.238277		4.060461		86.340495		0.007031		0.877339		0.609417		37.053702		-1.758019		-3.819663		-49.093561		-2.378646		9.394111		30.432088		32.594075		-8.830645		-10.646170		-47.060915		0.323148		13.321031		28.162241		-33.497787		-3.106890		-2.194777		-32.442246		-3.722509		3.744642		-60.589228		-13.181160		-36.247050		52.127921		110.792343		-4.409556		-0.772266		12.999285		-61.970380		-7.085009		-28.513144		64.815324		97.658426		-13.000105		-10.099166		13.332591		
0.904773		-0.211952		4.048281		86.522051		0.006627		0.863736		0.605940		37.742233		-1.676627		-3.789300		-51.712125		3.483551		9.875223		27.042827		33.488229		-8.713288		-10.164519		-49.779772		6.452499		13.414163		27.952057		-33.784930		-3.017936		-2.390907		-31.636401		-3.599860		3.925814		-59.375098		-13.523045		-35.743789		52.146494		110.726891		-4.329126		-1.041050		13.217602		-60.658041		-7.356354		-28.787020		64.267186		97.725404		-12.935757		-9.981587		12.460198		
0.907879		-0.172731		4.040114		86.774475		0.006336		0.850156		0.603054		38.576386		-1.490893		-3.680190		-54.448231		9.681969		9.883880		15.464551		34.856964		-8.602391		-9.513699		-53.086618		10.979512		12.880390		25.944857		-34.170651		-2.905532		-2.544164		-30.638829		-3.464331		3.958780		-58.175699		-13.709980		-35.260541		52.385668		110.511833		-4.262531		-1.310526		13.075376		-59.373066		-7.678136		-29.214560		64.036514		97.955732		-12.289210		-9.990858		10.775564		
0.910985		-0.289124		4.327962		86.874576		0.006218		0.837621		0.600503		39.417472		-1.371282		-3.415704		-57.254327		13.386970		8.918760		15.774037		35.990484		-8.427270		-9.083105		-56.319173		14.077446		12.221879		25.895552		-34.986348		-3.040640		-2.699387		-29.326577		-3.323485		4.057387		-56.714843		-13.920435		-34.798359		52.583373		110.602303		-4.097149		-1.407808		13.079622		-57.917098		-8.071709		-29.470881		63.776489		97.882277		-12.393541		-9.964216		10.713404		
0.914091		-0.282041		3.883409		87.252862		0.005553		0.823627		0.598377		41.480404		-1.274335		-3.345762		-60.488791		15.714979		7.714311		15.455295		38.432688		-8.165957		-8.077793		-60.013839		16.735012		11.724894		25.612266		-34.972624		-2.862040		-3.042305		-28.374786		-3.133019		4.381382		-55.317231		-14.258944		-34.191125		52.769405		110.674781		-3.905332		-1.701670		12.965006		-56.494160		-8.322814		-29.850497		63.495614		97.747773		-12.314899		-10.207366		10.724159		
0.917197		-0.297051		3.837362		87.484579		0.005276		0.810644		0.596551		43.395152		-1.071620		-3.057191		-63.841816		17.278932		6.468879		15.243953		40.639006		-7.992158		-7.215432		-63.789630		17.894435		11.170621		25.387079		-35.517105		-2.815108		-3.260724		-26.977302		-2.943247		4.471944		-53.784743		-14.492162		-33.664317		53.076969		110.728874		-3.801949		-1.877084		12.853740		-55.018262		-8.705610		-30.112285		63.396302		97.657128		-12.227262		-10.378869		10.764431		
0.920303		-0.255772		2.809368		87.912393		0.004620		0.795709		0.595264		46.855287		-0.863060		-2.838241		-67.569089		17.081648		4.276609		14.971313		44.389342		-7.612515		-5.916761		-67.832217		17.530070		9.764547		25.010466		-34.922294		-2.559834		-3.633373		-26.003547		-2.778350		4.752087		-52.323741		-14.836019		-32.965860		53.365119		110.759654		-3.833925		-2.070737		12.594484		-53.564028		-8.905380		-30.580960		63.212959		97.438190		-11.903127		-10.735006		11.120234		
0.923409		-0.274307		2.328275		88.155276		0.004320		0.782054		0.593819		49.845981		-0.668323		-2.480892		-71.281151		16.563519		2.846698		15.194054		47.496499		-7.321429		-4.966986		-71.695527		16.541632		8.770272		24.725729		-34.977492		-2.488846		-3.843388		-24.725468		-2.592128		4.791921		-50.777634		-15.094871		-32.303730		53.734232		110.750565		-3.944363		-2.157179		12.373692		-52.034408		-9.244548		-30.913538		63.147622		97.309616		-11.687556		-10.942134		11.615811		
0.926515		-0.341605		1.937479		88.345903		0.004090		0.768727		0.592264		52.816483		-0.515703		-2.101349		-74.996780		15.559454		1.560915		15.780849		50.465768		-6.978306		-4.119845		-75.390378		15.313031		7.791823		24.558648		-35.116529		-2.503245		-4.047484		-23.482597		-2.388745		4.830789		-49.184618		-15.373451		-31.580540		54.108288		110.763244		-4.140211		-2.215176		12.203406		-50.478570		-9.575491		-31.260692		63.121888		97.166688		-11.509758		-11.113981		12.298197		
0.929621		-0.417135		2.117851		88.414969		0.004056		0.756865		0.590546		55.065348		-0.371623		-1.730904		-78.558993		14.628307		0.977606		16.220133		52.593910		-6.725434		-3.472195		-78.785464		14.540204		7.277276		24.514397		-35.955128		-2.610173		-4.109379		-21.879486		-2.087588		4.729483		-47.493443		-15.596889		-30.912363		54.535911		110.833753		-4.247415		-2.245531		12.133793		-48.802858		-10.024313		-31.454090		63.182527		97.083755		-11.429437		-11.175360		12.741943		
0.932727		-0.443518		1.609711		88.533846		0.003914		0.743647		0.588775		58.048149		-0.258489		-1.555071		-82.014673		12.624549		-0.315746		21.688770		55.521861		-6.497580		-2.896609		-82.190186		13.334076		6.128021		24.882220		-35.867477		-2.625653		-4.195678		-21.076124		-1.895626		4.733509		-45.937044		-16.005042		-29.761199		54.850986		110.224645		-5.238054		-2.286817		12.321577		-47.173401		-10.273065		-31.920937		63.238292		97.294413		-12.100071		-11.333830		16.382376		
0.935833		-0.598625		1.966478		88.468567		0.004032		0.732985		0.586975		59.827101		-0.151219		-1.343681		-85.212950		11.500250		-1.453391		22.202545		57.083416		-6.232123		-2.425575		-85.059730		12.282155		5.814277		25.038318		-36.880906		-2.884217		-4.358166		-19.811583		-1.638845		4.774407		-43.980042		-16.266431		-29.085800		55.286414		110.638582		-5.547484		-2.273857		12.371704		-45.403958		-10.616023		-32.176644		63.283306		96.945849		-12.203760		-11.236944		16.916124		
0.938939		-0.648843		2.415740		88.358091		0.004246		0.722845		0.585227		61.281713		-0.011059		-1.273321		-88.149484		10.756190		-1.992335		22.780910		58.406058		-6.171296		-2.067375		-87.834625		11.830616		5.589200		25.206717		-38.018131		-3.065547		-4.319769		-18.528823		-1.394174		4.688560		-42.034293		-16.493041		-28.427852		55.705103		110.878588		-5.873994		-2.297684		12.414071		-43.547668		-11.060143		-32.336163		63.409252		96.793841		-12.223658		-11.130255		17.489076		
0.942045		-0.599290		3.106712		88.225809		0.004699		0.713615		0.583572		62.275151		0.212154		-1.347680		-90.805423		9.880864		-2.990084		24.737243		59.294868		-6.241064		-1.679714		-90.408609		11.636434		5.531215		25.860846		-39.460941		-3.209069		-4.252776		-17.245872		-1.135330		4.692298		-39.944449		-16.811930		-27.430224		56.054737		110.968397		-6.875939		-2.254122		12.902114		-41.648572		-11.473803		-32.592891		63.698311		96.770919		-12.540366		-10.840566		19.521016		
